<svg xmlns="http://www.w3.org/2000/svg" viewBox="0 0 420 340"><defs><linearGradient id="g" x1="0" x2="1"><stop stop-color="#f4cf72"/><stop offset=".55" stop-color="#d8992e"/><stop offset="1" stop-color="#9c5d13"/></linearGradient><linearGradient id="n" x1="0" x2="1"><stop stop-color="#0c2d4b"/><stop offset="1" stop-color="#0b6b72"/></linearGradient><filter id="s"><feDropShadow dx="0" dy="14" stdDeviation="16" flood-opacity=".22"/></filter></defs><circle cx="210" cy="170" r="152" fill="url(#n)"/><g filter="url(#s)"><path d="M210 45c48 30 93 36 117 39v76c0 73-42 113-117 145-75-32-117-72-117-145V84c24-3 69-9 117-39Z" fill="url(#g)"/><path d="M210 74c39 22 68 26 88 30v56c0 55-29 88-88 116-59-28-88-61-88-116v-56c20-4 49-8 88-30Z" fill="#17354a"/><circle cx="210" cy="167" r="58" fill="#fff3bf"/><path d="m180 169 21 21 42-51" fill="none" stroke="#0d6d6b" stroke-width="13" stroke-linecap="round" stroke-linejoin="round"/><path d="M178 91 210 72l32 19-8 18h-48Z" fill="#efc96d"/><circle cx="210" cy="85" r="8" fill="#17354a"/></g><path d="M102 257c42 23 72 31 108 31 36 0 66-8 108-31l-15 45c-39 17-67 23-93 23-26 0-54-6-93-23Z" fill="#d39328"/><rect x="119" y="258" width="182" height="52" rx="14" fill="#efc96d"/><text x="210" y="291" text-anchor="middle" font-family="Arial" font-size="19" font-weight="900" fill="#17354a">KEKS GARANTİSİ</text></svg>